<svg width="466" height="310" viewBox="0 0 466 310" fill="none" xmlns="http://www.w3.org/2000/svg">
<path d="M414.397 93.1694L408.451 121.903L404.626 118.18L398.112 122.812L393.137 116.649L381.974 124.746L372.441 108.83L361.802 115.047L357.585 109.242L344.075 116.837L340.011 108.155L349.479 62.3926L400.245 72.8507L414.397 93.1694Z" fill="#EBEBEB"/>
<path d="M400.244 72.8516L414.398 93.1671L396.791 89.5401L400.244 72.8516Z" fill="#DBDBDB"/>
<path d="M407.186 127.646L398.465 169.803L330.091 155.719L338.745 113.898L342.81 122.58L356.319 114.985L360.537 120.79L371.176 114.573L380.709 130.488L391.873 122.391L396.847 128.555L403.361 123.922L407.186 127.646Z" fill="#EBEBEB"/>
<path d="M309.321 122.706L239.638 127.009L234.102 37.7495L285.841 34.5547L304.84 50.454L309.321 122.706Z" fill="#EBEBEB"/>
<path d="M285.841 34.5547L304.839 50.454L286.896 51.5625L285.841 34.5547Z" fill="#DBDBDB"/>
<path d="M266.525 94.6091L266.255 92.5959C265.552 88.4227 266.698 83.756 270.332 78.8728C273.608 74.5552 275.386 71.4136 275.189 67.9143C274.967 63.9482 272.325 61.4434 267.41 61.6399C264.604 61.7968 261.54 62.9041 259.674 64.4907L257.529 59.6962C259.997 57.6862 264.368 56.1939 268.499 55.9626C277.461 55.4616 281.823 60.7571 282.155 66.6669C282.452 71.9555 279.705 75.9309 276.213 80.5729C273.011 84.8081 271.956 88.2993 272.413 92.2524L272.604 94.2699L266.525 94.6091ZM265.422 105.592C265.261 102.715 267.095 100.584 269.822 100.431C272.55 100.279 274.534 102.197 274.695 105.074C274.848 107.796 273.174 109.996 270.29 110.157C267.563 110.309 265.575 108.314 265.422 105.592Z" fill="#DBDBDB"/>
<path d="M92.2554 79.429L85.243 76.2559L84.2707 78.3986C83.9848 79.0285 83.3647 79.4309 82.6726 79.4606C82.2898 79.4774 81.9071 79.5152 81.5262 79.5729C80.8428 79.677 80.158 79.4024 79.7554 78.8413L78.3829 76.9298L72.1217 81.4062L73.4942 83.3177C73.8969 83.8788 73.9373 84.6135 73.6185 85.226C73.4408 85.567 73.2824 85.9167 73.1438 86.2726C72.8922 86.9174 72.3112 87.3731 71.6215 87.4407L69.2754 87.6701L70.0316 95.3165L72.3858 95.0828C73.0761 95.014 73.7291 95.3568 74.1038 95.9396C74.2057 96.0977 74.3119 96.254 74.4225 96.4077C74.5331 96.5615 74.6468 96.7121 74.7642 96.8591C75.1942 97.3979 75.3098 98.1214 75.0252 98.7488L74.046 100.907L81.0584 104.08L82.0351 101.933C82.3215 101.303 82.9416 100.901 83.635 100.872C84.0159 100.856 84.3974 100.82 84.7764 100.762C85.4593 100.658 86.1427 100.933 86.5454 101.494L87.9185 103.406L94.1797 98.9293L92.8065 97.0172C92.4045 96.4573 92.3641 95.7226 92.681 95.1107C92.8575 94.7709 93.0147 94.4225 93.1526 94.0672C93.4036 93.4218 93.9839 92.9655 94.6742 92.8973L97.0254 92.6648L96.2692 85.0189L93.9168 85.2508C93.229 85.3184 92.5779 84.9768 92.2045 84.3958C92.1019 84.2371 91.9951 84.0796 91.8832 83.9246C91.7726 83.7703 91.6589 83.6202 91.5415 83.4727C91.109 82.9314 90.9935 82.2041 91.2805 81.5736L92.2554 79.429ZM88.2776 86.5026C90.3063 89.3279 89.6557 93.2556 86.8249 95.2799C83.9935 97.3042 80.0524 96.6588 78.0238 93.8335C75.9951 91.0081 76.6469 87.0718 79.4783 85.0481C82.3091 83.0238 86.249 83.6779 88.2776 86.5026Z" fill="#EBEBEB"/>
<path d="M409.076 180.862L404.403 183.552L405.229 184.979C405.472 185.399 405.449 185.915 405.184 186.321C405.037 186.545 404.902 186.778 404.78 187.018C404.56 187.449 404.124 187.726 403.64 187.726H401.989V193.111H403.64C404.124 193.111 404.56 193.387 404.78 193.819C404.902 194.059 405.037 194.292 405.184 194.516C405.449 194.922 405.472 195.438 405.229 195.857L404.403 197.284L409.076 199.974L409.902 198.541C410.145 198.12 410.607 197.889 411.092 197.914C411.224 197.921 411.357 197.924 411.489 197.924C411.622 197.924 411.755 197.921 411.887 197.914C412.37 197.889 412.83 198.119 413.071 198.537L413.904 199.973L418.576 197.284L417.749 195.852C417.506 195.433 417.531 194.916 417.797 194.511C417.943 194.287 418.077 194.056 418.199 193.817C418.419 193.387 418.855 193.11 419.338 193.11H420.99V187.725H419.338C418.855 187.725 418.419 187.449 418.199 187.019C418.077 186.779 417.943 186.548 417.797 186.325C417.531 185.919 417.506 185.403 417.749 184.983L418.576 183.552L413.904 180.861L413.076 182.294C412.834 182.712 412.374 182.942 411.89 182.918C411.758 182.911 411.624 182.907 411.489 182.907C411.357 182.907 411.224 182.911 411.092 182.918C410.607 182.943 410.145 182.711 409.901 182.291L409.076 180.862ZM411.489 186.009C413.93 186.009 415.906 187.981 415.906 190.416C415.906 192.85 413.929 194.827 411.489 194.827C409.05 194.827 407.069 192.85 407.069 190.416C407.069 187.981 409.05 186.009 411.489 186.009Z" fill="#EBEBEB"/>
<path d="M106.436 56.5202L102.151 59.7895L103.154 61.0977C103.45 61.4827 103.493 61.9973 103.283 62.4338C103.166 62.6756 103.063 62.9236 102.973 63.1771C102.811 63.6322 102.414 63.9633 101.934 64.0259L100.297 64.2386L100.993 69.5774L102.631 69.3647C103.111 69.3021 103.579 69.521 103.852 69.9196C104.004 70.1422 104.168 70.3555 104.343 70.5589C104.658 70.9271 104.748 71.4362 104.562 71.8832L103.927 73.4047L108.908 75.4705L109.543 73.9428C109.729 73.4946 110.157 73.2063 110.642 73.1678C110.773 73.1573 110.906 73.1436 111.037 73.1263C111.169 73.1095 111.3 73.0891 111.429 73.0655C111.905 72.9787 112.391 73.1474 112.685 73.5305L113.696 74.848L117.981 71.5788L116.975 70.2662C116.68 69.8812 116.637 69.366 116.849 68.9295C116.965 68.6896 117.069 68.4422 117.159 68.1898C117.321 67.7354 117.717 67.4043 118.197 67.3423L119.835 67.1296L119.138 61.7902L117.5 62.0029C117.021 62.0655 116.553 61.8472 116.279 61.4486C116.127 61.2272 115.964 61.0152 115.79 60.8125C115.474 60.4442 115.383 59.9352 115.57 59.4875L116.205 57.9623L111.224 55.8965L110.588 57.4223C110.402 57.8687 109.975 58.1564 109.492 58.1942C109.36 58.2047 109.227 58.2184 109.094 58.2357C108.962 58.2531 108.831 58.2736 108.702 58.2971C108.223 58.3839 107.735 58.2147 107.44 57.829L106.436 56.5202ZM109.495 61.3128C111.915 60.9985 114.13 62.6997 114.445 65.114C114.76 67.5289 113.056 69.7429 110.636 70.0573C108.216 70.3716 105.996 68.6666 105.681 66.2523C105.367 63.8381 107.076 61.6271 109.495 61.3128Z" fill="#EBEBEB"/>
<path d="M74.4476 196.406C74.6924 190.406 74.5936 184.395 74.2003 178.404C73.3876 166.047 71.3484 153.786 68.5486 141.729C66.9729 134.942 65.0319 128.27 63.0101 121.605C62.9492 121.404 62.6273 121.461 62.6833 121.671C68.9363 145.166 74.0667 169.412 73.7132 193.836C73.6144 200.672 72.8209 207.386 72.171 214.178C72.1536 214.359 72.4531 214.432 72.4947 214.245C73.7859 208.433 74.2059 202.342 74.4476 196.406Z" fill="#EBEBEB"/>
<path d="M62.6832 121.67C62.6832 121.67 53.2103 145.663 55.3309 151.302C57.4522 156.942 61.8245 158.145 61.8245 158.145C61.8245 158.145 56.0287 166.402 60.0786 174.147C64.129 181.891 73.1278 181.525 73.7255 190.306C73.7255 190.305 74.2269 153.589 62.6832 121.67Z" fill="#EBEBEB"/>
<path d="M72.696 175.146C72.7078 175.106 72.7053 175.063 72.6867 175.02C71.3564 158.706 68.4554 142.443 63.4978 126.755C63.4835 126.708 63.4071 126.724 63.4201 126.771C65.2972 133.79 66.9667 140.846 68.3939 147.941C67.1643 146.676 65.555 145.95 63.8725 145.425C63.8408 145.415 63.8252 145.46 63.8551 145.473C65.6072 146.229 67.2854 147.105 68.5244 148.586C68.8009 149.977 69.0718 151.368 69.329 152.761C67.2121 150.4 64.2763 149.229 61.3387 148.115C61.297 148.1 61.2747 148.163 61.3157 148.18C64.3751 149.422 67.4228 151.024 69.4955 153.655C70.2181 157.637 70.8507 161.633 71.398 165.641C69.8509 164.027 67.9409 162.943 65.7495 162.411C65.6836 162.395 65.647 162.492 65.7135 162.511C67.9646 163.158 69.9006 164.415 71.4422 166.173C71.4533 166.185 71.4658 166.191 71.4776 166.199C71.6671 167.609 71.846 169.021 72.0138 170.434C70.8221 169.42 69.5048 168.648 68.0546 168.051C68.0161 168.035 67.995 168.095 68.0329 168.111C69.5061 168.737 70.8314 169.639 71.9983 170.731C72.0144 170.746 72.0318 170.744 72.0486 170.75C72.2064 172.094 72.3636 173.438 72.4997 174.785C70.3275 172.173 67.6427 170.284 64.4652 169.061C64.4031 169.037 64.3708 169.131 64.431 169.157C67.5203 170.497 70.243 172.621 72.3487 175.237C72.4065 175.309 72.4817 175.32 72.5481 175.299C72.7532 177.365 72.9365 179.432 73.0887 181.504C73.0906 181.532 73.1378 181.535 73.1359 181.506C73.0166 179.384 72.8675 177.265 72.696 175.146Z" fill="white"/>
<path d="M65.0844 143.04C63.4416 141.914 61.3539 141.433 59.393 141.27C59.3458 141.266 59.342 141.335 59.388 141.342C61.4278 141.644 63.1415 142.381 65.0154 143.176C65.0968 143.211 65.1552 143.089 65.0844 143.04Z" fill="white"/>
<path d="M66.2345 168.442C64.9347 167.663 63.4516 167.223 61.9622 166.983C61.9107 166.975 61.9057 167.055 61.9567 167.064C63.469 167.337 64.8086 167.875 66.183 168.544C66.2414 168.572 66.2898 168.475 66.2345 168.442Z" fill="white"/>
<path d="M99.3499 151.694C95.3994 154.464 91.6081 157.661 88.3858 161.257C84.9511 165.09 82.4459 169.44 80.6962 174.269C77.1117 184.162 75.1471 194.877 74.9681 205.39C74.8675 211.284 75.3931 217.132 76.6563 222.892C76.7023 223.102 77.0167 223.042 76.9844 222.83C75.4397 212.695 75.4963 202.354 77.1558 192.237C78.7844 182.312 81.3399 171.513 87.6626 163.447C91.1054 159.054 95.3982 155.599 99.6419 152.028C99.865 151.841 99.5798 151.532 99.3499 151.694Z" fill="#EBEBEB"/>
<path d="M76.3613 198.245C76.3613 198.245 79.6146 192.779 84.3535 188.051C89.0924 183.324 93.0839 179.963 93.6996 176.837C94.316 173.711 88.9526 171.407 88.9526 171.407C88.9526 171.407 95.5108 172.582 97.3046 169.836C99.099 167.09 99.9651 151.184 99.9651 151.184C99.9651 151.184 88.0349 159.683 82.4765 171.598C76.918 183.512 76.3613 198.245 76.3613 198.245Z" fill="#EBEBEB"/>
<path d="M95.8391 155.261C90.8187 160.181 85.7672 165.424 82.8109 171.887C81.7975 174.103 80.9351 176.401 80.1759 178.743C80.174 178.747 80.174 178.751 80.1721 178.754C80.0199 179.224 79.8652 179.694 79.7217 180.167C79.7074 180.19 79.6999 180.216 79.6974 180.243C78.2361 185.071 77.2028 190.063 76.3081 194.939C76.3025 194.971 76.3503 194.987 76.3572 194.954C76.8716 192.472 77.4383 189.967 78.072 187.468C78.0944 187.469 78.1186 187.465 78.1435 187.455C79.1581 187.029 80.1784 186.763 81.2744 186.662C81.3458 186.655 81.3396 186.532 81.2676 186.535C80.21 186.585 79.1755 186.771 78.1708 187.099C78.7487 184.846 79.3768 182.599 80.0833 180.385C82.3866 179.822 84.7905 179.519 87.159 179.462C87.1833 179.461 87.1876 179.424 87.1621 179.423C84.7744 179.312 82.5301 179.517 80.2045 180.012C80.3275 179.632 80.4555 179.255 80.5828 178.876C82.138 178.523 83.7001 178.225 85.2919 178.08C85.3205 178.078 85.318 178.029 85.2894 178.029C83.7311 178.071 82.1958 178.235 80.6791 178.589C81.3284 176.672 82.0299 174.782 82.8085 172.942C83.4522 171.42 84.2176 169.973 85.0608 168.578C86.3364 168.29 87.5728 168.015 88.8801 167.899C88.9168 167.895 88.9124 167.837 88.877 167.835C87.6903 167.758 86.4544 167.847 85.3062 168.186C85.9338 167.175 86.593 166.184 87.2988 165.225C87.2988 165.225 87.2988 165.225 87.2995 165.225C89.9749 164.634 92.6864 164.085 95.4234 164.598C95.4706 164.607 95.488 164.528 95.4414 164.515C92.8362 163.831 90.2502 164.226 87.658 164.737C87.9407 164.362 88.2302 163.991 88.5222 163.622C90.165 163.115 91.7979 162.87 93.5209 162.839C93.5563 162.838 93.5619 162.787 93.5252 162.783C91.9526 162.634 90.3844 162.786 88.8646 163.196C91.0765 160.454 93.5196 157.879 95.9347 155.331C96.0447 155.214 95.9577 155.145 95.8391 155.261Z" fill="white"/>
<path d="M95.7048 166.104C94.9195 166.02 94.1211 165.933 93.332 166.021C93.2369 166.032 93.245 166.188 93.3407 166.19C94.126 166.212 94.9114 166.154 95.6968 166.197C95.757 166.201 95.7645 166.11 95.7048 166.104Z" fill="white"/>
<path d="M87.1172 181.534C85.8634 181.519 84.6114 181.855 83.4402 182.27C83.411 182.281 83.4271 182.33 83.4576 182.323C84.6716 182.034 85.9 181.917 87.1265 181.715C87.2272 181.699 87.2222 181.535 87.1172 181.534Z" fill="white"/>
<path d="M84.5443 176.204C84.0354 176.177 83.4849 176.267 82.9835 176.345C82.9319 176.353 82.9344 176.437 82.9884 176.438C83.4954 176.446 84.0528 176.46 84.553 176.365C84.6412 176.348 84.6375 176.209 84.5443 176.204Z" fill="white"/>
<path d="M41.3883 168.575C45.2275 169.906 49.0356 171.618 52.4766 173.785C56.1443 176.095 59.1795 179.038 61.714 182.543C66.9058 189.722 70.9787 197.94 73.5584 206.407C75.0049 211.154 75.9344 216.007 76.2463 220.961C76.2575 221.141 75.9897 221.166 75.9667 220.986C74.8688 212.428 72.4282 204.071 68.7412 196.268C65.1245 188.611 60.5552 180.461 53.5695 175.392C49.7657 172.631 45.4916 170.825 41.2305 168.913C41.0062 168.812 41.1652 168.497 41.3883 168.575Z" fill="#EBEBEB"/>
<path d="M70.775 200.945C70.775 200.945 66.8762 197.271 61.9459 194.538C57.0156 191.806 53.0074 190.006 51.7846 187.618C50.5618 185.23 54.3687 182.129 54.3687 182.129C54.3687 182.129 49.3335 184.593 47.2452 182.784C45.1569 180.976 40.7715 168.303 40.7715 168.303C40.7715 168.303 52.3954 172.429 59.6538 180.79C66.9122 189.151 70.775 200.945 70.775 200.945Z" fill="#EBEBEB"/>
<path d="M70.1695 198.332C64.3563 187.443 56.5983 177.592 45.9686 171.09C45.9642 171.088 45.9592 171.095 45.9636 171.098C48.7621 172.877 51.3406 174.929 53.7439 177.173C51.5929 177.114 49.4021 177.455 47.4946 178.489C47.4523 178.512 47.4828 178.569 47.5262 178.555C49.6524 177.837 51.6948 177.365 53.9564 177.47C53.9875 177.471 54.0074 177.455 54.0291 177.443C54.4063 177.799 54.7785 178.162 55.1469 178.529C54.0285 178.576 52.8971 178.734 51.8072 178.971C51.778 178.977 51.7867 179.023 51.8166 179.017C52.9958 178.79 54.1466 178.71 55.3439 178.726C57.2917 180.679 59.1067 182.769 60.8265 184.939C60.0498 184.826 59.2359 184.892 58.4915 185.107C58.4362 185.123 58.4505 185.203 58.5083 185.195C59.3552 185.089 60.1598 185.103 61.0011 185.161C61.3192 185.566 61.6411 185.967 61.9524 186.377C59.5621 186.233 57.2203 186.462 54.8977 187.062C54.8636 187.07 54.8729 187.123 54.9083 187.116C57.3042 186.646 59.7199 186.497 62.1543 186.646C62.4507 187.039 62.7315 187.442 63.0223 187.839C61.5963 187.796 60.2132 187.974 58.8227 188.319C58.7699 188.332 58.7848 188.414 58.8389 188.403C60.2692 188.078 61.7237 187.995 63.1863 188.065C64.4371 189.784 65.635 191.541 66.7857 193.32C66.1762 193.195 65.5362 193.263 64.9428 193.431C64.9112 193.441 64.9192 193.485 64.9528 193.482C65.6369 193.402 66.2756 193.49 66.9473 193.576C67.983 195.184 68.9827 196.809 69.9421 198.442C70.0235 198.579 70.2465 198.476 70.1695 198.332Z" fill="white"/>
<path d="M61.1261 189.3C59.9897 189.203 58.8347 189.381 57.7492 189.712C57.7181 189.721 57.7256 189.768 57.7591 189.762C58.8763 189.556 59.9847 189.479 61.1174 189.419C61.1914 189.415 61.2057 189.307 61.1261 189.3Z" fill="white"/>
<path d="M50.9873 176.03C50.4735 175.971 49.9372 176.039 49.4296 176.12C49.3694 176.13 49.388 176.219 49.447 176.213C49.959 176.157 50.4641 176.177 50.9767 176.162C51.06 176.159 51.0737 176.04 50.9873 176.03Z" fill="white"/>
<path d="M85.7676 236.952H59.5293L63.2703 209.605L64.2266 202.594H81.0703L82.0265 209.605L85.7676 236.952Z" fill="#DBDBDB"/>
<path d="M82.0267 209.605H63.2705L64.2267 202.594H81.0705L82.0267 209.605Z" fill="#C7C7C7"/>
<path d="M83.4783 200.162H61.8174V206.1H83.4783V200.162Z" fill="#DBDBDB"/>
<path d="M42.8496 236.952L90.0765 236.801L137.303 236.746L231.757 236.643L326.211 236.745L373.438 236.8L420.665 236.952L373.438 237.103L326.211 237.158L231.757 237.261L137.303 237.157L90.0765 237.103L42.8496 236.952Z" fill="#263238"/>
<path d="M233 283.162C331.397 283.162 411.163 274.44 411.163 263.682C411.163 252.923 331.397 244.201 233 244.201C134.604 244.201 54.8379 252.923 54.8379 263.682C54.8379 274.44 134.604 283.162 233 283.162Z" fill="#EBEBEB"/>
<path d="M191.527 260.455C190.078 260.944 148.565 261.089 146.978 260.097C146.374 259.723 146 253.692 145.755 246.391C145.703 244.814 145.657 243.186 145.621 241.531L142.255 219.437L170.007 219.26L172.626 241.359L172.52 246.22C172.52 246.22 188.439 253.258 190.062 254.533C191.678 255.808 192.976 259.966 191.527 260.455Z" fill="#EB9481"/>
<path d="M191.526 260.455C190.078 260.945 148.564 261.09 146.977 260.097C146.244 259.639 145.844 250.831 145.621 241.532L172.626 241.359L172.52 246.22C172.52 246.22 188.439 253.258 190.062 254.534C191.677 255.808 192.975 259.966 191.526 260.455Z" fill="white"/>
<path d="M191.527 260.454C190.078 260.943 148.565 261.088 146.978 260.096C146.374 259.722 146.001 253.691 145.756 246.39L172.52 246.219C172.52 246.219 188.44 253.257 190.063 254.532C191.678 255.807 192.976 259.965 191.527 260.454Z" fill="#A6A6A6"/>
<path d="M190.926 258.8C183.966 258.654 155.883 258.72 148.992 259.103C148.936 259.106 148.936 259.144 148.992 259.147C155.887 259.442 183.969 259.149 190.927 258.913C191.073 258.909 191.073 258.803 190.926 258.8Z" fill="#263238"/>
<path d="M187.387 253.052C185.737 252.991 184.126 253.779 183.231 254.763C182.369 255.708 181.634 257.036 181.688 258.475C181.69 258.516 181.766 258.517 181.772 258.475C182.16 255.756 184.629 253.36 187.388 253.14C187.444 253.135 187.444 253.054 187.387 253.052Z" fill="#263238"/>
<path d="M175.223 246.901C172.437 246.872 169.211 247.864 167.488 250.144C167.422 250.232 167.549 250.325 167.631 250.282C170.144 248.978 172.534 248.005 175.271 247.243C175.465 247.189 175.422 246.903 175.223 246.901Z" fill="#263238"/>
<path d="M177.376 247.729C174.591 247.701 171.365 248.693 169.642 250.972C169.575 251.06 169.702 251.153 169.784 251.111C172.297 249.806 174.688 248.833 177.424 248.071C177.618 248.017 177.575 247.731 177.376 247.729Z" fill="#263238"/>
<path d="M179.529 248.559C176.744 248.531 173.518 249.523 171.795 251.802C171.729 251.89 171.855 251.983 171.937 251.941C174.451 250.636 176.841 249.663 179.578 248.901C179.772 248.847 179.729 248.562 179.529 248.559Z" fill="#263238"/>
<path d="M181.681 249.387C178.896 249.359 175.67 250.351 173.948 252.63C173.881 252.719 174.007 252.812 174.09 252.769C176.603 251.465 178.993 250.492 181.73 249.73C181.924 249.676 181.881 249.39 181.681 249.387Z" fill="#263238"/>
<path d="M150.741 252.502C147.617 252.522 147.642 257.368 150.772 257.348C153.897 257.328 153.872 252.482 150.741 252.502Z" fill="#263238"/>
<path d="M178.206 239.473C176.793 238.312 175.02 239.458 174.155 240.672C172.754 242.639 171.797 245.392 171.65 247.789C171.646 247.848 171.691 247.871 171.737 247.868C171.797 248.067 172.034 248.233 172.239 248.09C174.217 246.714 176.503 245.489 177.999 243.548C178.872 242.415 179.544 240.572 178.206 239.473ZM174.81 245.393C173.853 246.093 172.868 246.742 171.938 247.477C172.431 246.09 172.861 244.689 173.493 243.353C173.795 242.716 174.117 242.066 174.504 241.475C175.106 240.555 177.831 238.222 178.119 241.245C178.278 242.912 175.95 244.557 174.81 245.393Z" fill="#263238"/>
<path d="M164.733 248.843C167.159 249.206 169.658 248.508 172.04 248.131C172.287 248.092 172.341 247.809 172.247 247.624C172.282 247.595 172.298 247.547 172.255 247.507C170.484 245.882 167.881 244.561 165.505 244.113C164.038 243.836 161.964 244.236 161.752 246.051C161.552 247.767 163.316 248.631 164.733 248.843ZM163.046 247.267C161.153 244.889 164.738 244.685 165.811 244.932C166.501 245.09 167.184 245.335 167.844 245.586C169.228 246.111 170.512 246.823 171.831 247.482C170.649 247.596 169.488 247.809 168.313 247.966C166.911 248.154 164.089 248.578 163.046 247.267Z" fill="#263238"/>
<path d="M101.475 117.307C101.475 117.307 133.703 172.015 134.566 175.856C135.892 181.759 142.921 240.048 142.921 240.048L176.455 239.445C176.455 239.445 170.675 188.052 165.201 171.121C161.258 158.926 132.816 118.478 132.816 118.478L101.475 117.307Z" fill="#37474F"/>
<path d="M173.405 234.315C168.589 234.28 151.524 234.088 145.113 234.685C145.064 234.689 145.066 234.771 145.115 234.777C147.321 235.094 168.593 234.601 173.407 234.447C173.497 234.444 173.496 234.316 173.405 234.315Z" fill="#263238"/>
<path d="M106.976 122.326C109.088 125.632 111.316 128.868 113.475 132.145C115.635 135.423 117.788 138.706 119.912 142.006C124.157 148.604 128.292 155.27 132.352 161.977C134.255 165.123 136.068 168.298 137.376 171.729C138.671 175.128 139.552 178.665 140.205 182.23C140.862 185.822 141.294 189.448 141.703 193.072C142.138 196.932 142.567 200.792 142.999 204.652C143.882 212.55 144.766 220.448 145.649 228.346C145.757 229.315 145.864 230.284 145.961 231.254C145.974 231.396 145.72 231.424 145.702 231.282C144.715 223.433 143.896 215.562 142.999 207.704C142.553 203.791 142.107 199.879 141.661 195.967C141.247 192.329 140.851 188.688 140.286 185.069C139.73 181.514 139.009 177.975 137.924 174.534C136.792 170.939 135.187 167.564 133.288 164.295C129.402 157.608 125.29 151.033 121.176 144.477C117.026 137.863 112.842 131.269 108.503 124.772C107.967 123.969 107.427 123.171 106.871 122.382C106.828 122.321 106.935 122.263 106.976 122.326Z" fill="#263238"/>
<path d="M112.04 263.683C110.512 263.59 71.0347 247.629 69.9343 246.116C69.8976 246.065 69.8759 245.966 69.874 245.825C69.8815 244.47 72.6153 239.729 74.9 233.508C75.0429 233.11 76.0619 231.264 77.476 228.774C81.3631 221.937 88.2413 210.223 88.2413 210.223L114.045 220.453L101.694 238.901L99.772 243.367C99.772 243.367 111.882 255.855 112.905 257.641C113.921 259.429 113.564 263.77 112.04 263.683Z" fill="#EB9481"/>
<path d="M112.04 263.682C110.512 263.589 71.0347 247.628 69.9343 246.115C69.8976 246.065 69.8759 245.965 69.874 245.824C69.8815 244.469 72.6153 239.728 74.9 233.507C75.0429 233.109 76.0619 231.263 77.476 228.773L101.694 238.901L99.772 243.366C99.772 243.366 111.882 255.854 112.905 257.641C113.921 259.428 113.564 263.769 112.04 263.682Z" fill="white"/>
<path d="M112.037 263.68C110.51 263.592 71.0325 247.629 69.9346 246.115C69.5158 245.543 71.2804 240.163 74.8965 233.51L99.771 243.37C99.771 243.37 111.881 255.853 112.907 257.643C113.924 259.429 113.563 263.769 112.037 263.68Z" fill="#A6A6A6"/>
<path d="M112.102 261.921C105.706 259.18 79.6476 248.729 73.1162 246.505C73.0634 246.487 73.0491 246.522 73.1 246.545C79.3805 249.4 105.522 259.64 112.06 262.027C112.197 262.077 112.237 261.979 112.102 261.921Z" fill="#263238"/>
<path d="M110.983 255.269C109.476 254.594 107.687 254.722 106.486 255.298C105.332 255.852 104.152 256.808 103.661 258.163C103.647 258.202 103.718 258.23 103.739 258.194C105.121 255.819 108.309 254.522 110.951 255.35C111.003 255.366 111.034 255.292 110.983 255.269Z" fill="#263238"/>
<path d="M102.019 245.012C99.4475 243.943 96.0848 243.656 93.6312 245.123C93.5361 245.18 93.6181 245.314 93.7107 245.306C96.531 245.037 99.112 245.03 101.936 245.348C102.135 245.37 102.204 245.089 102.019 245.012Z" fill="#263238"/>
<path d="M103.703 246.587C101.132 245.517 97.7684 245.23 95.3148 246.697C95.2197 246.754 95.3017 246.889 95.3949 246.88C98.2152 246.611 100.796 246.604 103.62 246.922C103.819 246.945 103.887 246.663 103.703 246.587Z" fill="#263238"/>
<path d="M105.387 248.161C102.816 247.091 99.453 246.804 96.9993 248.272C96.9043 248.328 96.9863 248.463 97.0795 248.453C99.8991 248.186 102.481 248.178 105.305 248.496C105.503 248.518 105.571 248.237 105.387 248.161Z" fill="#263238"/>
<path d="M107.071 249.735C104.5 248.665 101.137 248.378 98.6829 249.846C98.5879 249.903 98.6699 250.037 98.7631 250.028C101.583 249.76 104.164 249.752 106.988 250.07C107.187 250.093 107.255 249.812 107.071 249.735Z" fill="#263238"/>
<path d="M77.2192 241.04C74.315 239.889 72.5169 244.39 75.426 245.544C78.3307 246.696 80.1289 242.193 77.2192 241.04Z" fill="#263238"/>
<path d="M107.578 239.246C106.703 237.64 104.63 238.039 103.371 238.842C101.333 240.14 99.4102 242.333 98.3732 244.5C98.3477 244.553 98.3806 244.591 98.4241 244.606C98.4049 244.813 98.5614 245.056 98.8056 245C101.157 244.466 103.737 244.185 105.853 242.946C107.089 242.222 108.404 240.765 107.578 239.246ZM102.204 243.462C101.054 243.753 99.8967 243.986 98.7578 244.319C99.7358 243.218 100.661 242.081 101.749 241.078C102.269 240.6 102.811 240.119 103.393 239.716C104.297 239.088 107.701 237.946 106.831 240.856C106.352 242.46 103.574 243.114 102.204 243.462Z" fill="#263238"/>
<path d="M91.5651 242.887C93.6776 244.132 96.2568 244.421 98.6061 244.963C98.8496 245.02 99.0074 244.778 98.9888 244.57C99.0323 244.556 99.0658 244.518 99.0404 244.464C98.0096 242.295 96.0934 240.096 94.0591 238.791C92.8034 237.986 90.7306 237.58 89.8521 239.183C89.0207 240.7 90.3318 242.161 91.5651 242.887ZM90.594 240.795C89.7334 237.883 93.1327 239.035 94.0355 239.665C94.6152 240.07 95.1564 240.554 95.6746 241.033C96.7601 242.039 97.6821 243.179 98.6564 244.282C97.5187 243.946 96.3624 243.709 95.213 243.415C93.8435 243.063 91.068 242.401 90.594 240.795Z" fill="#263238"/>
<path d="M103.685 237.868L74.8027 226.23C74.8027 226.23 110.614 173.688 110.879 169.777C111.113 166.313 95.3844 136.168 94.7643 127.383C94.0951 117.902 98.6706 110.564 103.698 106.01L133.494 118.648C133.494 118.648 130.349 123.669 125.395 126.463C125.395 126.463 140.675 161.308 139.808 172.021C138.937 182.793 103.685 237.868 103.685 237.868Z" fill="#37474F"/>
<path d="M104.969 232.387C100.792 230.595 102.016 231.051 97.8196 229.305C95.7655 228.451 82.2651 222.851 80.2098 222.39C80.1644 222.38 80.1352 222.452 80.175 222.476C81.9719 223.574 95.5679 228.938 97.6376 229.752C101.867 231.417 100.671 230.893 104.919 232.51C104.999 232.54 105.047 232.421 104.969 232.387Z" fill="#263238"/>
<path d="M130.301 125.826C127.197 126.492 124.152 127.586 121.226 128.762C121.111 128.809 121.166 128.979 121.289 128.943C124.334 128.055 127.432 127.226 130.422 126.178C130.657 126.096 130.539 125.774 130.301 125.826Z" fill="#263238"/>
<path d="M126.766 124.601C126.473 125.112 126.223 125.65 126.001 126.194C125.829 126.617 125.608 127.069 125.61 127.53C125.611 127.619 125.732 127.641 125.787 127.586C126.132 127.246 126.317 126.75 126.536 126.327C126.789 125.836 127.054 125.35 127.293 124.853C127.451 124.523 126.947 124.286 126.766 124.601Z" fill="#263238"/>
<path d="M127.128 121.806C127.31 121.349 127.494 120.892 127.687 120.439C127.886 119.969 128.118 119.506 128.281 119.024C128.306 118.948 128.427 118.999 128.397 119.075C128.216 119.534 128.096 120.022 127.95 120.493C127.804 120.966 127.649 121.437 127.492 121.907C127.2 122.782 126.844 123.65 126.467 124.494C126.954 124.488 127.456 124.466 127.898 124.246C128.378 124.007 128.67 123.497 128.907 123.037C129.17 122.524 129.412 122.002 129.682 121.494C129.981 120.932 130.311 120.377 130.508 119.768C130.533 119.692 130.652 119.743 130.624 119.82C130.176 121.075 129.735 122.329 129.037 123.486C128.763 123.94 128.541 124.414 128.035 124.591C127.492 124.783 126.9 124.745 126.335 124.705C126.265 124.724 126.175 124.68 126.199 124.595C126.466 123.659 126.766 122.71 127.128 121.806Z" fill="#263238"/>
<path d="M125.86 127.598C126.919 129.838 127.85 132.07 128.84 134.302C129.807 136.483 130.713 138.689 131.592 140.907C133.369 145.388 134.961 149.95 136.357 154.563C137.048 156.846 137.685 159.145 138.26 161.459C138.837 163.78 139.4 166.124 139.639 168.508C139.879 170.898 139.708 173.262 139.041 175.574C138.364 177.919 137.471 179.968 136.412 182.162C135.764 183.503 135.542 183.322 135.855 182.645C136.745 180.724 139.073 174.904 138.904 170.01C138.822 167.649 138.336 165.324 137.802 163.03C137.257 160.689 136.641 158.363 135.969 156.054C134.646 151.505 133.074 147.046 131.456 142.595C130.55 140.101 129.578 137.632 128.659 135.143C127.732 132.636 126.777 130.379 125.749 127.642C125.723 127.57 125.828 127.529 125.86 127.598Z" fill="#263238"/>
<path d="M103.931 120.199C104.449 120.008 105.167 120.325 105.694 120.413C106.371 120.526 107.055 120.595 107.741 120.618C108.417 120.641 109.098 120.614 109.771 120.549C110.444 120.484 111.131 120.401 111.715 120.036C112.7 119.422 113.525 118.341 114.193 117.41C114.927 116.386 115.689 115.21 116.126 114.024C116.153 113.951 116.257 114.001 116.235 114.073C116.017 114.764 115.856 115.461 115.579 116.136C115.319 116.772 114.982 117.379 114.626 117.965C113.96 119.059 113.196 120.226 112.054 120.876C110.855 121.559 109.311 121.518 107.974 121.441C107.202 121.397 106.432 121.295 105.674 121.136C105.127 121.02 104.207 120.933 103.858 120.453C103.797 120.368 103.83 120.237 103.931 120.199Z" fill="#263238"/>
<path d="M83.0479 220.738C87.7962 213.569 92.4549 206.341 97.0304 199.061C101.618 191.761 106.121 184.409 110.561 177.02C111.622 175.252 112.85 173.487 113.534 171.529C114.277 169.401 113.855 167.34 113.181 165.258C111.946 161.439 110.408 157.724 108.747 154.071C107.081 150.409 105.288 146.806 103.523 143.19C101.774 139.603 99.9116 136.005 98.5844 132.236C97.3169 128.635 96.8341 124.902 97.8071 121.167C98.7727 117.462 100.861 114.135 103.042 111.03C103.617 110.211 104.203 109.4 104.78 108.582C104.824 108.519 104.919 108.595 104.873 108.657C102.47 111.894 100.126 115.32 98.7167 119.12C98.0202 120.998 97.5691 122.975 97.525 124.982C97.4797 127.017 97.8624 129.037 98.4638 130.975C99.632 134.745 101.477 138.314 103.196 141.856C104.954 145.476 106.757 149.074 108.452 152.725C110.157 156.398 111.752 160.126 113.061 163.959C113.645 165.665 114.295 167.45 114.257 169.279C114.215 171.281 113.257 173.085 112.264 174.773C107.944 182.123 103.461 189.382 98.9212 196.599C94.3649 203.843 89.7173 211.03 84.9983 218.171C84.4031 219.071 83.8072 219.971 83.2095 220.87C83.1362 220.981 82.9746 220.849 83.0479 220.738Z" fill="#263238"/>
<path d="M135.149 85.2304C137.838 91.1211 151.423 99.2381 157.786 100.11C162.364 100.738 176.264 100.954 181.031 100.227C186.614 99.3764 182.349 84.3364 179.048 84.7214C169.977 85.7798 162.274 86.9578 159.853 86.9578C156.897 86.9578 140.895 81.8322 138.967 81.1118C134.248 79.3479 133.624 81.8899 135.149 85.2304Z" fill="#EB9481"/>
<path d="M135.232 86.7896C138.636 91.8172 149.955 100.036 149.955 100.036L151.526 96.5626L156.724 85.0834C156.724 85.0834 146.33 81.8104 139.49 80.3527C138.566 80.155 137.751 80.0359 137.042 80.0043C132.675 79.7706 132.296 82.4651 135.232 86.7896Z" fill="#FFC727"/>
<path d="M135.232 86.7896C138.636 91.8172 149.955 100.036 149.955 100.036L151.526 96.5626C147.305 91.6739 140.79 84.2643 137.042 80.0043C132.675 79.7706 132.296 82.4651 135.232 86.7896Z" fill="#263238"/>
<path d="M147.915 97.7161C148.777 95.6063 152.62 87.0937 153.574 85.3074C153.64 85.1834 153.734 85.1934 153.682 85.331C151.249 91.7114 148.95 95.7166 147.999 97.7453C147.975 97.7961 147.893 97.7701 147.915 97.7161Z" fill="#263238"/>
<path d="M177.383 84.8875C182.904 84.1646 189.733 82.929 195.516 85.3786C196.65 85.8591 197.061 86.7029 197.061 86.7029C199.673 87.755 199.959 89.3013 199.959 89.3013C202.091 91.0243 202.166 92.6462 202.166 92.6462C202.166 92.6462 205.219 93.9147 204.756 95.8832C204.245 98.0923 200.058 95.8783 197.009 96.0655C190.024 96.4952 180.217 99.0558 178.215 99.3794L177.383 84.8875Z" fill="#EB9481"/>
<path d="M189.372 91.3837C191.431 91.2981 193.45 91.1605 195.509 91.3533C197.768 91.5647 199.906 92.1469 202.097 92.6845C202.165 92.7012 202.196 92.6082 202.131 92.5809C198.319 90.9801 193.43 90.5597 189.367 91.2901C189.268 91.3081 189.269 91.388 189.372 91.3837Z" fill="#263238"/>
<path d="M188.5 87.2136C190.507 87.2408 194.034 87.3121 199.938 89.3643C199.957 89.3712 199.974 89.3402 199.954 89.3302C196.299 87.4888 192.551 86.8347 188.501 87.1181C188.375 87.1268 188.367 87.2117 188.5 87.2136Z" fill="#263238"/>
<path d="M188.073 84.9642C191.484 85.1409 193.613 85.6834 197.044 86.712C197.063 86.7175 197.079 86.6859 197.058 86.6766C193.281 85.0987 191.731 84.953 188.062 84.8458C187.937 84.8427 187.94 84.9574 188.073 84.9642Z" fill="#263238"/>
<path d="M188.627 97.1152C187.74 97.5306 187.952 97.9981 189.65 98.3906C191.366 98.7911 198.4 98.8984 198.152 101.35C197.907 103.81 187.955 103.496 185.179 102.626C182.4 101.763 178.216 99.3801 178.216 99.3801C180.164 99.0515 184.813 97.8065 188.627 97.1152Z" fill="#EB9481"/>
<path d="M142.536 94.62C142.494 95.679 142.389 96.7578 142.24 97.8261C142.255 97.7876 142.271 97.7498 142.285 97.7114C142.492 97.1534 142.694 96.5811 142.945 96.0417C142.958 96.0132 143.009 96.0206 143.002 96.0553C142.893 96.6406 142.687 97.2284 142.464 97.7802C142.357 98.0437 142.248 98.3078 142.134 98.5682C142.056 99.045 141.971 99.5174 141.875 99.9837C141.691 100.87 140.852 104.642 140.661 105.279C140.621 105.413 140.461 105.383 140.471 105.233C140.517 104.538 141.221 100.61 141.363 99.7214C141.637 98.0139 142.013 96.2717 142.471 94.6033C142.481 94.5649 142.538 94.5835 142.536 94.62Z" fill="#263238"/>
<path d="M136.059 122.806C134.402 123.659 132.264 124.979 122.634 123.088C122.032 122.966 121.428 122.818 120.821 122.638C111.79 119.931 100.958 109.334 100.348 108.587C100.348 108.587 114.691 85.3794 133.039 78.0851C135.306 77.1836 139.062 78.9221 141.14 81.0859C141.883 81.859 143.493 87.5531 142.875 92.1678C142.25 96.7756 137.728 121.962 136.059 122.806Z" fill="#FFC727"/>
<path d="M134.778 91.957C134.83 92.4555 134.791 92.941 134.73 93.4239C134.657 93.9051 134.562 94.3825 134.375 94.8475C134.321 94.349 134.361 93.8635 134.422 93.3812C134.496 92.9 134.591 92.422 134.778 91.957Z" fill="white"/>
<path d="M128.523 107.76C128.575 108.258 128.536 108.744 128.475 109.227C128.402 109.708 128.307 110.186 128.12 110.651C128.066 110.152 128.106 109.667 128.168 109.184C128.241 108.703 128.335 108.225 128.523 107.76Z" fill="white"/>
<path d="M117.889 95.8164C117.942 96.3149 117.902 96.8003 117.841 97.2827C117.769 97.7638 117.674 98.2418 117.486 98.7068C117.433 98.2084 117.472 97.7229 117.534 97.2399C117.608 96.7594 117.703 96.2814 117.889 95.8164Z" fill="white"/>
<path d="M138.875 106.959C138.927 107.457 138.888 107.943 138.827 108.426C138.754 108.907 138.659 109.384 138.471 109.849C138.418 109.351 138.458 108.865 138.519 108.383C138.592 107.902 138.688 107.424 138.875 106.959Z" fill="white"/>
<path d="M125.222 93.7665C125.721 93.7144 126.208 93.7535 126.691 93.8142C127.173 93.8868 127.652 93.9816 128.118 94.1689C127.619 94.2222 127.132 94.1825 126.648 94.1211C126.167 94.048 125.688 93.9537 125.222 93.7665Z" fill="white"/>
<path d="M113.155 105.184C113.655 105.132 114.141 105.171 114.625 105.232C115.107 105.305 115.585 105.4 116.051 105.587C115.552 105.64 115.065 105.6 114.582 105.539C114.1 105.466 113.621 105.371 113.155 105.184Z" fill="white"/>
<path d="M127.35 117.542C127.849 117.49 128.336 117.529 128.82 117.59C129.302 117.662 129.78 117.757 130.246 117.944C129.747 117.998 129.26 117.958 128.777 117.897C128.295 117.823 127.816 117.728 127.35 117.542Z" fill="white"/>
<path d="M109.436 113.052C109.935 113 110.422 113.039 110.906 113.099C111.388 113.172 111.866 113.267 112.333 113.454C111.833 113.507 111.347 113.468 110.863 113.406C110.381 113.333 109.902 113.239 109.436 113.052Z" fill="white"/>
<path d="M134.687 80.8485C135.186 80.7964 135.673 80.8355 136.157 80.8962C136.638 80.9688 137.117 81.0636 137.583 81.2509C137.084 81.3042 136.597 81.2645 136.113 81.2031C135.632 81.13 135.153 81.0357 134.687 80.8485Z" fill="white"/>
<path d="M131.179 84.8047C130.863 85.194 130.492 85.5096 130.106 85.8078C129.714 86.0968 129.308 86.3677 128.846 86.5636C129.161 86.1736 129.533 85.8581 129.919 85.5605C130.312 85.2722 130.717 85.0018 131.179 84.8047Z" fill="white"/>
<path d="M112.046 96.043C111.729 96.4323 111.358 96.7479 110.972 97.0461C110.58 97.335 110.174 97.606 109.712 97.8025C110.028 97.4125 110.399 97.097 110.785 96.7994C111.178 96.5111 111.583 96.2401 112.046 96.043Z" fill="white"/>
<path d="M135.933 101.119C135.617 101.509 135.245 101.824 134.86 102.122C134.468 102.411 134.062 102.682 133.6 102.879C133.915 102.489 134.287 102.173 134.673 101.876C135.065 101.587 135.471 101.316 135.933 101.119Z" fill="white"/>
<path d="M120.464 110.838C120.147 111.227 119.776 111.543 119.39 111.841C118.998 112.13 118.592 112.401 118.13 112.597C118.446 112.207 118.817 111.891 119.203 111.594C119.596 111.306 120.001 111.035 120.464 110.838Z" fill="white"/>
<path d="M141.861 87.834C141.545 88.2233 141.173 88.5389 140.787 88.8371C140.395 89.1261 139.99 89.397 139.527 89.5929C139.843 89.2029 140.215 88.8874 140.601 88.5898C140.994 88.3015 141.399 88.0305 141.861 87.834Z" fill="white"/>
<path d="M141.537 99.1022C141.147 98.7866 140.831 98.4158 140.532 98.0308C140.242 97.6396 139.971 97.2347 139.774 96.7734C140.165 97.0884 140.482 97.4592 140.78 97.8442C141.069 98.2366 141.34 98.6415 141.537 99.1022Z" fill="white"/>
<path d="M107.057 106.862C106.666 106.546 106.35 106.176 106.051 105.791C105.762 105.399 105.49 104.994 105.294 104.533C105.685 104.848 106.001 105.22 106.299 105.605C106.588 105.996 106.86 106.401 107.057 106.862Z" fill="white"/>
<path d="M137.346 116.098C136.956 115.783 136.64 115.412 136.341 115.028C136.051 114.636 135.78 114.231 135.583 113.77C135.974 114.084 136.29 114.456 136.588 114.841C136.877 115.232 137.149 115.638 137.346 116.098Z" fill="white"/>
<path d="M122.167 89.7779C121.776 89.4624 121.46 89.0916 121.161 88.7066C120.872 88.3154 120.6 87.9105 120.403 87.4492C120.794 87.7642 121.11 88.1356 121.409 88.5206C121.698 88.9118 121.969 89.3173 122.167 89.7779Z" fill="white"/>
<path d="M122.434 121.354C122.044 121.039 121.728 120.668 121.429 120.283C121.139 119.892 120.868 119.487 120.671 119.025C121.062 119.34 121.378 119.712 121.676 120.097C121.965 120.488 122.237 120.893 122.434 121.354Z" fill="white"/>
<path d="M125.015 102.727C124.625 102.412 124.309 102.04 124.01 101.656C123.72 101.265 123.449 100.86 123.252 100.398C123.643 100.713 123.959 101.084 124.257 101.469C124.546 101.861 124.818 102.266 125.015 102.727Z" fill="white"/>
<path d="M137.767 87.2646C135.428 86.8312 133.224 82.0014 132.947 78.7526C132.929 78.53 134.042 76.7612 135.292 74.5478C136.045 73.2018 136.852 71.6852 137.488 70.2487C137.617 69.953 138.384 70.9388 138.384 70.9388L140.048 72.2091L145.55 76.4189C145.55 76.4189 143.329 79.0397 142.235 81.5513C142.146 81.7621 142.08 81.9661 142.036 82.1682C142.028 82.1967 142.021 82.2327 142.007 82.2717C141.693 83.4727 140.026 87.6825 137.767 87.2646Z" fill="#EB9481"/>
<path d="M142.036 82.1697C142.027 82.1982 142.02 82.2342 142.006 82.2732C141.705 82.1883 141.39 82.0692 141.056 81.913C135.035 79.097 137.691 71.0469 137.691 71.0469L140.048 72.2106L145.55 76.4204C145.55 76.4204 143.329 79.0412 142.235 81.5528C142.146 81.7636 142.081 81.9676 142.036 82.1697Z" fill="#263238"/>
<path d="M151.865 59.2617C151.865 59.2617 154.616 61.0052 154.634 64.1039C154.652 67.2033 153.415 70.2351 153.128 70.3436C152.841 70.4521 151.865 59.2617 151.865 59.2617Z" fill="#263238"/>
<path d="M138.211 60.8687C136.557 64.1268 136.641 74.3853 138.707 77.029C141.701 80.8612 147.469 82.1818 150.951 78.3924C154.326 74.7195 153.98 61.3523 151.592 58.8611C148.075 55.1926 140.655 56.0562 138.211 60.8687Z" fill="#EB9481"/>
<path d="M146.984 69.0884C146.978 69.0623 146.93 69.1231 146.932 69.1516C146.97 69.8503 146.896 70.657 146.268 70.9037C146.248 70.9112 146.251 70.9465 146.275 70.9428C147.046 70.8157 147.133 69.7437 146.984 69.0884Z" fill="#263238"/>
<path d="M146.341 68.3723C145.212 68.3127 145.176 70.5702 146.222 70.6253C147.252 70.6793 147.287 68.4219 146.341 68.3723Z" fill="#263238"/>
<path d="M150.817 69.0613C150.823 69.0346 150.871 69.0954 150.87 69.1239C150.836 69.8227 150.916 70.6287 151.547 70.8711C151.566 70.8785 151.563 70.9139 151.54 70.9101C150.769 70.7886 150.673 69.7179 150.817 69.0613Z" fill="#263238"/>
<path d="M151.455 68.3413C152.583 68.2738 152.635 70.5306 151.59 70.5932C150.561 70.6546 150.509 68.3978 151.455 68.3413Z" fill="#263238"/>
<path d="M145.632 66.654C145.942 66.5814 146.215 66.463 146.513 66.3601C146.85 66.2435 147.13 66.1852 147.355 65.8889C147.474 65.7302 147.43 65.4412 147.287 65.3098C146.952 65.0048 146.505 65.0451 146.093 65.1684C145.647 65.303 145.338 65.52 145.077 65.905C144.824 66.2782 145.224 66.7494 145.632 66.654Z" fill="#263238"/>
<path d="M152.238 67.6543C151.926 67.5985 151.646 67.4949 151.343 67.4075C151 67.3089 150.717 67.2655 150.478 66.9816C150.35 66.8291 150.378 66.5383 150.515 66.4C150.833 66.0776 151.282 66.0944 151.699 66.196C152.152 66.3064 152.473 66.5073 152.753 66.8774C153.025 67.2358 152.651 67.7281 152.238 67.6543Z" fill="#263238"/>
<path d="M145.388 75.713C145.554 75.8798 145.718 76.1073 145.971 76.1327C146.215 76.1569 146.502 76.0515 146.727 75.9684C146.75 75.9604 146.771 75.9839 146.757 76.005C146.571 76.2704 146.185 76.4328 145.862 76.3708C145.545 76.3107 145.393 76.0348 145.321 75.7434C145.311 75.7031 145.364 75.6888 145.388 75.713Z" fill="#263238"/>
<path d="M149.457 72.7222C149.457 72.7222 149.487 73.7688 149.433 74.2555C149.428 74.3007 148.054 74.0323 146.573 74.3578C146.351 74.4067 146.372 74.2269 146.628 74.1085C147.141 73.8729 147.792 73.651 149.06 73.7867C149.109 73.6559 148.985 72.1766 149.062 72.1791C149.331 72.1853 149.836 72.424 150.141 72.5498C150.143 70.3681 149.794 68.2043 149.828 66.0318C149.83 65.9543 149.943 65.9431 149.958 66.0144C150.485 68.257 150.539 70.768 150.595 73.0204C150.606 73.3013 149.643 72.8264 149.457 72.7222Z" fill="#263238"/>
<path d="M148.06 73.8837C148.06 73.8837 147.571 75.11 146.754 75.4392C145.815 75.8181 145.493 74.9699 146.451 74.2203C146.955 73.8272 148.06 73.8837 148.06 73.8837Z" fill="#263238"/>
<path d="M147.081 75.2475C146.976 75.3281 146.87 75.3963 146.752 75.4397C145.888 75.7869 145.547 75.0987 146.243 74.4043C146.714 74.4415 147.23 74.6151 147.081 75.2475Z" fill="#FF99BA"/>
<path d="M137.736 69.6457C138.871 69.9935 140.179 66.5841 140.548 65.2734C140.874 64.1184 141.249 60.4542 141.305 60.2037C141.36 59.9538 146.258 63.4463 149.122 62.6112C151.986 61.776 153.9 59.2117 153.939 58.0145C153.978 56.8173 150.423 53.7786 147.346 53.6236C144.269 53.4686 140.104 57.3703 140.104 57.3703C140.104 57.3703 141.519 55.6845 141.471 55.5463C141.423 55.408 139.435 56.2004 139.069 57.6133C139.069 57.6133 139.462 55.8395 139.312 55.8067C139.163 55.7738 137.617 57.2928 137.966 58.4441C137.966 58.4441 136.18 59.9886 136.014 61.6818C135.849 63.3756 136.401 69.2371 137.736 69.6457Z" fill="#263238"/>
<path d="M151.157 62.0148C150.287 62.4147 149.415 62.8542 148.452 62.9807C147.412 63.1177 146.333 62.8573 145.364 62.4872C144.374 62.109 143.474 61.5597 142.656 60.8876C141.941 60.2992 141.305 59.5899 140.54 59.0654C140.349 58.9346 140.127 59.2093 140.245 59.3853C141.406 61.1238 143.46 62.5752 145.441 63.2014C147.525 63.8605 149.483 63.3967 151.168 62.0377C151.179 62.029 151.172 62.0079 151.157 62.0148Z" fill="#263238"/>
<path d="M138.924 69.342C138.924 69.342 137.162 65.7696 135.57 66.3487C133.98 66.9277 134.959 71.8642 136.582 72.7681C138.205 73.6721 139.073 72.189 139.073 72.189L138.924 69.342Z" fill="#EB9481"/>
<path d="M135.886 67.7567C135.86 67.7499 135.848 67.7877 135.87 67.8013C137.002 68.4746 137.466 69.6892 137.732 70.9156C137.442 70.4146 136.991 70.0953 136.326 70.4301C136.291 70.4475 136.314 70.5014 136.349 70.4996C136.861 70.4698 137.204 70.6099 137.477 71.0563C137.67 71.3725 137.777 71.7513 137.897 72.1004C137.937 72.217 138.141 72.1891 138.119 72.0589C138.117 72.0489 138.115 72.039 138.113 72.0297C138.38 70.4977 137.515 68.1646 135.886 67.7567Z" fill="#263238"/>
<path d="M127.273 85.2861C126.058 92.3094 133.658 115.976 138.551 120.397C145.828 126.971 159.281 131.293 164.156 132.699C166.281 133.312 172.159 118.393 170.009 117.411C165.405 115.306 151.103 110.855 149.756 109.712C148.409 108.569 140.19 96.7691 136.537 89.9633C131.635 80.8326 127.888 81.7335 127.273 85.2861Z" fill="#EB9481"/>
<path d="M166.39 116.098C166.39 116.098 172.734 117.711 176.833 118.961C179.12 119.658 182.934 121.202 184.379 122.481C186.541 124.394 194.359 133.773 192.12 135.714C190.094 137.47 184.404 128.562 184.404 128.562C184.404 128.562 190.942 137.044 188.113 138.712C185.284 140.379 180.196 129.46 180.196 129.46C180.196 129.46 186.718 138.327 183.528 139.585C181.117 140.536 175.951 130.906 175.951 130.906C175.951 130.906 181.504 138.566 179.067 139.651C176.374 140.85 171.046 132.259 171.046 132.259C164.387 133.977 160.512 132.076 157.917 130.396C157.289 129.988 166.39 116.098 166.39 116.098Z" fill="#EB9481"/>
<path d="M182.331 125.482C183.135 126.451 183.956 127.426 184.671 128.463C185.386 129.499 186.066 130.562 186.681 131.661C188.19 134.355 188.713 136.278 188.667 136.162C187.597 133.437 185.095 129.686 184.38 128.649C183.666 127.615 183.005 126.543 182.291 125.508C182.272 125.482 182.312 125.459 182.331 125.482Z" fill="#263238"/>
<path d="M178.532 127.99C179.91 129.08 182.802 133.139 183.917 135.858C183.963 135.972 183.902 135.963 183.834 135.859C182.961 134.516 179.433 129.306 178.5 128.011C178.486 127.991 178.514 127.975 178.532 127.99Z" fill="#263238"/>
<path d="M174.884 129.559C176.48 131.135 177.819 133.287 178.873 135.773C178.921 135.886 178.831 135.868 178.765 135.762C177.478 133.671 176.484 132.022 174.818 129.614C174.792 129.576 174.847 129.522 174.884 129.559Z" fill="#263238"/>
<path d="M134.189 85.8037C128.515 77.797 125.125 80.7649 126.263 89.4555C127.327 97.583 130.182 107.266 130.182 107.266L144.498 100.346C144.499 100.346 137.82 90.9273 134.189 85.8037Z" fill="#FFC727"/>
<path d="M137.656 88.9512C137.859 89.41 137.97 89.8843 138.059 90.3623C138.137 90.8428 138.193 91.3264 138.156 91.8267C137.953 91.3679 137.842 90.8936 137.753 90.4156C137.677 89.9357 137.621 89.4515 137.656 88.9512Z" fill="white"/>
<path d="M129.186 93.8186C129.645 93.6164 130.121 93.5061 130.6 93.4168C131.081 93.3393 131.566 93.2835 132.067 93.3201C131.607 93.5228 131.132 93.6338 130.653 93.7218C130.172 93.7987 129.686 93.8539 129.186 93.8186Z" fill="white"/>
<path d="M129.555 81.3691C129.373 81.836 129.115 82.2502 128.839 82.6513C128.554 83.0456 128.25 83.4275 127.87 83.7555C128.052 83.288 128.309 82.8739 128.585 82.4734C128.871 82.0784 129.175 81.6971 129.555 81.3691Z" fill="white"/>
<path d="M141.635 97.5586C141.453 98.0255 141.195 98.4396 140.92 98.8408C140.635 99.2351 140.331 99.617 139.951 99.9444C140.133 99.4769 140.39 99.0633 140.666 98.6622C140.952 98.2685 141.255 97.8866 141.635 97.5586Z" fill="white"/>
<path d="M131.729 102.415C131.261 102.233 130.846 101.976 130.444 101.701C130.048 101.416 129.666 101.114 129.338 100.734C129.806 100.915 130.221 101.172 130.623 101.448C131.018 101.733 131.4 102.036 131.729 102.415Z" fill="white"/>
<path d="M136.092 88.2136C136.854 89.2596 137.643 90.2851 138.43 91.3124C138.23 90.7928 138.057 90.2677 137.903 89.7314C137.896 89.7066 137.932 89.6954 137.941 89.719C138.1 90.1307 138.277 90.5355 138.429 90.9491C138.502 91.1481 138.577 91.3465 138.653 91.5437C138.67 91.5864 138.687 91.6286 138.704 91.6714C139.316 92.473 139.925 93.2766 140.514 94.095C141.217 95.0715 141.896 96.0647 142.577 97.0561C143.281 98.0803 143.949 99.2813 144.693 100.277C144.757 100.364 143.426 100.9 143.302 100.969C143.174 101.04 143.088 100.917 143.223 100.875C143.348 100.837 144.403 100.191 144.416 100.178C143.735 99.1783 142.943 98.2539 142.23 97.2768C141.52 96.304 140.808 95.3343 140.12 94.3461C138.722 92.3397 137.438 90.2553 136.051 88.2397C136.032 88.2136 136.073 88.1882 136.092 88.2136Z" fill="#263238"/>
<path d="M126.615 95.2054C126.833 95.6282 127.067 96.0461 127.26 96.4814C127.339 96.6612 127.418 96.8416 127.497 97.0208C127.171 95.4732 126.851 93.9245 126.534 92.3745C126.53 92.3565 126.557 92.3472 126.562 92.3652C127.218 94.8743 127.881 97.381 128.49 99.9019C129.071 102.305 129.772 104.738 130.105 107.19C130.303 107.125 131.417 106.665 131.45 106.737C131.482 106.809 129.993 107.509 129.973 107.45C129.163 105.054 128.661 102.332 128.109 99.8659C127.954 99.1715 127.809 98.4753 127.661 97.7796C127.499 97.3605 127.303 96.9563 127.113 96.5496C126.91 96.1187 126.748 95.6673 126.571 95.2252C126.56 95.2004 126.602 95.1806 126.615 95.2054Z" fill="#263238"/>
<path d="M130.408 104.876C132.397 103.757 140.706 99.4647 142.566 98.6556C142.695 98.5998 142.762 98.6655 142.636 98.7406C136.759 102.235 132.464 103.95 130.456 104.951C130.406 104.976 130.358 104.905 130.408 104.876Z" fill="#263238"/>
<path d="M358.085 267.872H168.778L196.151 112.965H385.458L358.085 267.872Z" fill="#FFC727"/>
<path d="M260.942 96.9219H198.986L196.151 112.964H262.454L260.942 96.9219Z" fill="#FFC727"/>
<g opacity="0.1">
<path opacity="0.1" d="M358.085 267.872H168.778L196.151 112.965H385.458L358.085 267.872Z" fill="black"/>
<path opacity="0.1" d="M260.942 96.9219H198.986L196.151 112.964H262.454L260.942 96.9219Z" fill="black"/>
</g>
<path d="M192.302 103.466C192.056 102.567 192.002 101.668 191.991 100.769C192.001 99.8689 192.056 98.9699 192.302 98.0703C192.548 98.9699 192.603 99.8689 192.613 100.769C192.601 101.668 192.547 102.567 192.302 103.466Z" fill="#263238"/>
<path d="M186.796 105.056C186.133 104.399 185.635 103.648 185.176 102.874C184.733 102.091 184.33 101.284 184.093 100.383C184.757 101.039 185.255 101.79 185.713 102.565C186.155 103.348 186.558 104.154 186.796 105.056Z" fill="#263238"/>
<path d="M182.825 109.178C181.922 108.94 181.114 108.538 180.328 108.097C179.552 107.64 178.8 107.143 178.142 106.48C179.046 106.717 179.853 107.119 180.639 107.561C181.414 108.02 182.167 108.517 182.825 109.178Z" fill="#263238"/>
<path d="M181.45 114.73C180.549 114.975 179.648 115.029 178.747 115.04C177.845 115.031 176.945 114.975 176.043 114.73C176.945 114.484 177.845 114.429 178.747 114.42C179.648 114.43 180.549 114.486 181.45 114.73Z" fill="#263238"/>
<path d="M183.042 120.223C182.384 120.884 181.631 121.381 180.856 121.84C180.071 122.281 179.263 122.683 178.359 122.92C179.017 122.258 179.77 121.76 180.546 121.303C181.331 120.862 182.14 120.461 183.042 120.223Z" fill="#263238"/>
<path d="M187.174 124.188C186.936 125.089 186.533 125.895 186.091 126.679C185.633 127.454 185.134 128.204 184.471 128.86C184.708 127.959 185.111 127.153 185.554 126.369C186.013 125.596 186.511 124.844 187.174 124.188Z" fill="#263238"/>
<path d="M192.737 125.557C192.983 126.456 193.038 127.355 193.048 128.254C193.039 129.154 192.983 130.053 192.737 130.953C192.491 130.053 192.436 129.154 192.427 128.254C192.437 127.355 192.493 126.456 192.737 125.557Z" fill="#263238"/>
<path d="M198.243 123.969C198.906 124.625 199.404 125.377 199.864 126.151C200.306 126.934 200.709 127.74 200.947 128.642C200.283 127.986 199.785 127.234 199.326 126.46C198.884 125.676 198.482 124.87 198.243 123.969Z" fill="#263238"/>
<path d="M202.215 119.846C203.118 120.084 203.926 120.486 204.712 120.926C205.488 121.384 206.24 121.881 206.898 122.543C205.994 122.306 205.187 121.905 204.401 121.463C203.626 121.004 202.873 120.507 202.215 119.846Z" fill="#263238"/>
<path d="M203.589 114.294C204.49 114.049 205.391 113.995 206.292 113.984C207.194 113.994 208.095 114.049 208.996 114.294C208.095 114.54 207.194 114.595 206.292 114.604C205.391 114.593 204.49 114.539 203.589 114.294Z" fill="#263238"/>
<path d="M201.997 108.801C202.655 108.14 203.408 107.642 204.184 107.184C204.968 106.743 205.777 106.34 206.68 106.104C206.023 106.766 205.27 107.263 204.494 107.72C203.708 108.161 202.9 108.563 201.997 108.801Z" fill="#263238"/>
<path d="M197.865 104.837C198.104 103.936 198.506 103.13 198.948 102.346C199.407 101.571 199.905 100.821 200.569 100.164C200.331 101.066 199.929 101.872 199.486 102.656C199.026 103.43 198.528 104.181 197.865 104.837Z" fill="#263238"/>
<path d="M357.807 267.871H168.093L141.157 118.588H330.873L357.807 267.871Z" fill="#FFC727"/>
<path d="M206.897 209.846C211.252 209.846 214.782 206.323 214.782 201.978C214.782 197.632 211.252 194.109 206.897 194.109C202.542 194.109 199.012 197.632 199.012 201.978C199.012 206.323 202.542 209.846 206.897 209.846Z" fill="#263238"/>
<path d="M269.232 209.846C273.587 209.846 277.117 206.323 277.117 201.978C277.117 197.632 273.587 194.109 269.232 194.109C264.877 194.109 261.347 197.632 261.347 201.978C261.347 206.323 264.877 209.846 269.232 209.846Z" fill="#263238"/>
<path d="M249.39 211.102L248.958 210.277C248.919 210.203 244.845 202.689 236.648 202.689C229.173 202.689 227.35 209.764 227.276 210.065L227.055 210.966L225.247 210.531L225.465 209.628C225.486 209.54 227.686 200.83 236.648 200.83C245.991 200.83 250.424 209.064 250.608 209.415L251.041 210.239L249.39 211.102Z" fill="#263238"/>
<path d="M345.217 201.075C345.621 200.988 346.025 200.893 346.427 200.791" stroke="#263238" stroke-miterlimit="10"/>
<path d="M348.813 200.085C358.317 196.883 366.275 189.423 367.025 180.706C368.676 161.486 345.218 150.869 347.642 128.66C349.953 107.474 372.223 105.962 381.15 108.89C391.01 112.125 387.632 121.582 378.704 120.361C363.227 118.246 353.498 101.455 360.849 82.4089C366.341 68.1793 380.032 62.8126 385.593 61.1758" stroke="#263238" stroke-miterlimit="10" stroke-dasharray="4 4"/>
<path d="M386.79 60.846C387.559 60.6482 387.997 60.5664 387.997 60.5664" stroke="#263238" stroke-miterlimit="10"/>
<path d="M397.851 57.142C396.265 52.2415 385.654 54.0023 387.725 60.4044C389.797 66.8066 399.437 62.0425 397.851 57.142Z" fill="#263238"/>
<path d="M381.953 55.1665C382.032 53.0175 385.028 51.3634 389.264 52.1266C393.5 52.8898 397.488 55.7362 397.488 55.7362C397.488 55.7362 393.3 58.2925 389.02 58.7432C384.739 59.194 381.874 57.3253 381.953 55.1665Z" fill="#EBEBEB"/>
<path d="M397.488 55.7358C395.289 55.7507 393.093 55.6769 390.897 55.61C388.702 55.5164 386.507 55.4295 384.314 55.2522C386.514 55.2361 388.709 55.3105 390.906 55.3781C393.101 55.4723 395.296 55.5598 397.488 55.7358Z" fill="#263238"/>
<path d="M386.21 53.2637C386.846 53.5476 387.435 53.9079 388.027 54.2613C388.605 54.6382 389.187 55.009 389.72 55.456C389.084 55.172 388.496 54.8118 387.904 54.4584C387.325 54.0821 386.744 53.7101 386.21 53.2637Z" fill="#263238"/>
<path d="M391.967 55.5332C391.411 56.0044 390.805 56.4012 390.204 56.8036C389.588 57.183 388.975 57.5693 388.314 57.8787C388.871 57.4062 389.476 57.0107 390.078 56.6083C390.694 56.2288 391.306 55.8432 391.967 55.5332Z" fill="#263238"/>
<path d="M392.606 54.3242C392.935 54.4656 393.207 54.6751 393.482 54.8797C393.742 55.1054 394.006 55.3261 394.213 55.6163C393.885 55.4762 393.613 55.2654 393.337 55.0608C393.077 54.8345 392.814 54.6138 392.606 54.3242Z" fill="#263238"/>
<path d="M385.989 67.9207C387.313 69.6177 390.713 69.2103 393.701 66.1196C396.689 63.0296 398.257 58.3926 398.257 58.3926C398.257 58.3926 393.361 58.7627 389.625 60.8949C385.889 63.0271 384.659 66.2157 385.989 67.9207Z" fill="#EBEBEB"/>
<path d="M398.257 58.3926C396.464 59.6636 394.726 61.0046 392.984 62.3407C391.259 63.6979 389.528 65.0495 387.854 66.4724C389.648 65.202 391.386 63.8604 393.127 62.5243C394.852 61.1665 396.582 59.8149 398.257 58.3926Z" fill="#263238"/>
<path d="M390.558 66.9796C390.907 66.3782 391.173 65.7427 391.447 65.1097C391.695 64.4667 391.95 63.8269 392.12 63.1523C391.77 63.7537 391.504 64.3892 391.231 65.0223C390.983 65.6658 390.729 66.3057 390.558 66.9796Z" fill="#263238"/>
<path d="M393.897 61.7786C393.169 61.721 392.445 61.7526 391.721 61.7774C390.999 61.8288 390.277 61.8729 389.559 62.008C390.287 62.0663 391.011 62.0341 391.734 62.0093C392.457 61.9572 393.179 61.9119 393.897 61.7786Z" fill="#263238"/>
<path d="M395.125 62.3882C395.308 62.0825 395.406 61.7533 395.51 61.426C395.588 61.0912 395.673 60.7588 395.671 60.4023C395.486 60.708 395.39 61.0372 395.286 61.3646C395.208 61.6994 395.123 62.0323 395.125 62.3882Z" fill="#263238"/>
<path d="M397.279 57.2326C398.308 57.2326 399.141 56.401 399.141 55.3751C399.141 54.3492 398.308 53.5176 397.279 53.5176C396.251 53.5176 395.418 54.3492 395.418 55.3751C395.418 56.401 396.251 57.2326 397.279 57.2326Z" fill="#455A64"/>
<path d="M398.424 60.7678C399.452 60.7678 400.286 59.9361 400.286 58.9103C400.286 57.8844 399.452 57.0527 398.424 57.0527C397.396 57.0527 396.562 57.8844 396.562 58.9103C396.562 59.9361 397.396 60.7678 398.424 60.7678Z" fill="#455A64"/>
<path d="M195.293 59.0996C194.403 67.5868 186.783 73.7502 178.278 72.863C174.841 72.504 171.785 71.0483 169.419 68.8739L161.672 70.0091L165.548 63.3255C164.608 61.0421 164.212 58.5007 164.486 55.8849C165.376 47.3984 172.996 41.2343 181.5 42.1222C190.006 43.0094 196.183 50.6131 195.293 59.0996Z" fill="white"/>
<path d="M195.293 59.0989C194.969 61.9205 193.936 64.6857 192.167 66.9326C191.761 67.521 191.238 68.0126 190.764 68.5452C190.226 69.0127 189.724 69.5261 189.13 69.9259C187.997 70.7964 186.724 71.479 185.394 72.0017C184.07 72.5578 182.645 72.8232 181.225 72.9937C180.509 73.0322 179.791 73.0972 179.073 73.0346C178.354 73.0185 177.638 72.9416 176.93 72.8121C174.096 72.2999 171.413 70.9762 169.269 69.0375L169.452 69.0939L161.712 70.2794L161.15 70.3655L161.435 69.8714L165.288 63.1748L165.27 63.4395C163.393 59.0288 163.817 53.7762 166.224 49.6668C167.425 47.6091 169.098 45.8352 171.074 44.5128C173.049 43.1866 175.339 42.3552 177.683 42.0384C180.03 41.7277 182.445 41.941 184.687 42.6844C186.925 43.4365 188.977 44.7013 190.659 46.3387C194.077 49.5807 195.796 54.4464 195.293 59.0989ZM195.293 59.0989C195.763 54.4421 194.011 49.6061 190.59 46.4069C188.892 44.8067 186.836 43.5939 184.618 42.8909C182.396 42.1971 180.02 42.0315 177.731 42.3756C175.444 42.7259 173.228 43.576 171.335 44.8966C169.446 46.2203 167.853 47.9513 166.701 49.9396C165.528 51.9236 164.92 54.1966 164.735 56.4782C164.591 58.7672 164.965 61.0841 165.825 63.2101L165.881 63.3484L165.807 63.4749L161.908 70.1448L161.631 69.7368L169.386 68.6531L169.492 68.6382L169.569 68.7095C171.619 70.6297 174.213 71.9701 176.984 72.5207C177.677 72.6602 178.379 72.7476 179.085 72.7755C179.79 72.8499 180.497 72.7978 181.205 72.7724C182.607 72.6285 184.02 72.3917 185.341 71.8641C186.666 71.3687 187.947 70.7189 189.076 69.8553C189.67 69.4616 190.172 68.9544 190.712 68.4925C191.187 67.9661 191.711 67.4801 192.12 66.8966C193.898 64.6708 194.95 61.9187 195.293 59.0989Z" fill="#263238"/>
<path d="M172.319 64.6974C172.319 63.7749 172.962 63.1084 173.834 63.1084C174.759 63.1084 175.349 63.7749 175.349 64.6974C175.349 65.5946 174.759 66.2865 173.834 66.2865C172.936 66.2859 172.319 65.5939 172.319 64.6974ZM172.962 61.0326L172.602 48.7324H175.067L174.708 61.0326H172.962Z" fill="#FFC727"/>
<path d="M178.227 64.6974C178.227 63.7749 178.868 63.1084 179.741 63.1084C180.666 63.1084 181.257 63.7749 181.257 64.6974C181.257 65.5946 180.666 66.2865 179.741 66.2865C178.843 66.2859 178.227 65.5939 178.227 64.6974ZM178.868 61.0326L178.509 48.7324H180.975L180.615 61.0326H178.868Z" fill="#FFC727"/>
<path d="M184.134 64.6974C184.134 63.7749 184.776 63.1084 185.649 63.1084C186.573 63.1084 187.163 63.7749 187.163 64.6974C187.163 65.5946 186.573 66.2865 185.649 66.2865C184.75 66.2859 184.134 65.5939 184.134 64.6974ZM184.776 61.0326L184.416 48.7324H186.881L186.522 61.0326H184.776Z" fill="#FFC727"/>
</svg>
